# xmcd
#
# Track frame offsets: 
#        150
#        14530
#        28492
#        41682
#        58455
#        74361
#        93625
#        108668
#        127967
#        139070
#        148762
#        158809
#        172936
#        183449
#        211650
#
# Disc length: 3152 seconds
#
# Revision: 0
# Processed by: cddbd v1.5.2PL0 Copyright (c) Steve Scherf et al.
# Submitted via: ExactAudioCopy v0.95a5
#
DISCID=e20c4e0f
DTITLE=Slawek Wierzcholski - Przejsciowy Stanq
DYEAR=2006
DGENRE=Blues
TTITLE0=Bede Cie Mial
TTITLE1=To jesien, To jesien
TTITLE2=Gwizdany
TTITLE3=Mlody Pies
TTITLE4=Przejsciowy Stan
TTITLE5=Blues Dla Zmartwionych
TTITLE6=Rok 2000
TTITLE7=Ciezki Dzien
TTITLE8=Przegranych nikt nie lubi
TTITLE9=Nic naprawde nic
TTITLE10=Nadzieja to Ty
TTITLE11=Ostatnia Klotnia
TTITLE12=Sto KIlometrow
TTITLE13=Pierwsza Liga
TTITLE14=Data
EXTD=
EXTT0=
EXTT1=
EXTT2=
EXTT3=
EXTT4=
EXTT5=
EXTT6=
EXTT7=
EXTT8=
EXTT9=
EXTT10=
EXTT11=
EXTT12=
EXTT13=
EXTT14=
PLAYORDER=
